# xmcd
#
# Track frame offsets:
#	190
#	12869
#	36853
#	57222
#	70192
#	90165
#	113383
#	127691
#	139894
#	153509
#	181580
#	206077
#	224703
#
# Disc length: 3221 seconds
#
# Revision: 0
# Processed by: cddbd v1.4PL0 Copyright (c) Steve Scherf et al.
# Submitted via: dBpowerAMP V4.0
#
DISCID=a70c930d
DTITLE=Old Time Gospel Hour Quartet - The Lamb Is King
DYEAR=2000
DGENRE=Country
TTITLE0=There's a Brighter Day
TTITLE1=Valley of the Shadow
TTITLE2=When I Don't Know How to Pray
TTITLE3=Bad News for the Blues
TTITLE4=I'll Rest at His Feet
TTITLE5=Bloodline to the Cross
TTITLE6=Jesus is the Living Water
TTITLE7=Breath of Life to Me
TTITLE8=It's a Grand and Glorious Feeling
TTITLE9=It Has Always Been the Soldier
TTITLE10=The Dream
TTITLE11=Sometimes I get Homesick
TTITLE12=The Lamb is King
EXTD=Southern Gospel
EXTT0=
EXTT1=
EXTT2=
EXTT3=
EXTT4=
EXTT5=
EXTT6=
EXTT7=
EXTT8=
EXTT9=
EXTT10=
EXTT11=
EXTT12=
PLAYORDER=
